<svg width="90" height="90" viewBox="0 0 90 90" fill="none" xmlns="http://www.w3.org/2000/svg">
<g id="86b7ccfbcd78c3f290a1c5d988411112 1">
<g id="Group">
<g id="Group_2">
<g id="Group_3">
<path id="Vector" d="M29.2419 24.7539L35.2801 39.7122H31.6169L30.511 36.7209H24.8166L23.7107 39.7122H20.0492L26.0857 24.7539H29.2419ZM29.3496 33.7279L27.6812 29.3772H27.6465L25.9781 33.7279H29.3496Z" fill="#D9D9D9"/>
</g>
</g>
</g>
<g id="Group_4">
<g id="Group_5">
<g id="Group_6">
<path id="Vector_2" d="M34.5904 24.7539H40.047C41.57 24.7539 42.8026 25.1471 43.7449 25.9327C44.688 26.7174 45.1598 27.8598 45.1598 29.3598C45.1598 30.8589 44.6824 32.0343 43.7275 32.8859C42.7727 33.7378 41.5457 34.1636 40.047 34.1636H37.9984V39.7122H34.5904V24.7539ZM37.9984 31.4449H38.9602C39.7215 31.4449 40.3473 31.2912 40.8369 30.9831C41.3265 30.674 41.5713 30.1688 41.5713 29.4674C41.5713 28.7548 41.3265 28.2444 40.8369 27.9362C40.3473 27.6272 39.7215 27.4727 38.9602 27.4727H37.9984V31.4449Z" fill="#D9D9D9"/>
</g>
</g>
</g>
<g id="Group_7">
<g id="Group_8">
<g id="Group_9">
<path id="Vector_3" d="M48.8045 30.4293V39.7122H45.3965V24.7539H48.8045L54.7524 34.0369H54.7889V24.7539H58.1969V39.7122H54.7889L48.841 30.4293H48.8045Z" fill="#D9D9D9"/>
</g>
</g>
</g>
<g id="Group_10">
<g id="Group_11">
<g id="Group_12">
<path id="Vector_4" d="M66.7009 24.7539L72.7391 39.7122H69.0759L67.97 36.7209H62.2756L61.1697 39.7122H57.5082L63.5447 24.7539H66.7009ZM66.8086 33.7279L65.1402 29.3772H65.1054L63.437 33.7279H66.8086Z" fill="#D9D9D9"/>
</g>
</g>
</g>
<g id="Group_13">
<g id="Group_14">
<g id="Group_15">
<path id="Vector_5" d="M16.1989 54.611C16.7184 54.611 17.2232 54.5324 17.7128 54.3749C18.2024 54.2177 18.5617 54.0667 18.7909 53.9217L19.1347 53.6856L20.5861 56.5867C20.5374 56.6227 20.4706 56.6713 20.3864 56.7325C20.3018 56.7928 20.1052 56.9044 19.7961 57.0676C19.488 57.2308 19.159 57.3731 18.8083 57.4947C18.4584 57.6153 17.9997 57.723 17.4315 57.8193C16.863 57.9165 16.277 57.9651 15.6729 57.9651C14.2827 57.9651 12.965 57.624 11.7197 56.9408C10.4741 56.2568 9.4706 55.3171 8.70932 54.1214C7.9476 52.9248 7.56696 51.6314 7.56696 50.2412C7.56696 49.1891 7.79005 48.18 8.23709 47.2134C8.68501 46.246 9.2805 45.4178 10.0236 44.729C10.7675 44.0394 11.6351 43.489 12.626 43.078C13.6164 42.6674 14.6321 42.4617 15.6729 42.4617C16.639 42.4617 17.5305 42.5771 18.3465 42.8072C19.1624 43.0363 19.7397 43.2655 20.0791 43.4947L20.5861 43.8401L19.1347 46.7412C19.05 46.6683 18.9233 46.581 18.7545 46.479C18.5852 46.3762 18.2466 46.2403 17.7388 46.071C17.2319 45.9009 16.7184 45.8158 16.1989 45.8158C15.376 45.8158 14.6381 45.9491 13.9854 46.2151C13.3326 46.4816 12.8157 46.8323 12.435 47.2672C12.0539 47.7026 11.764 48.1713 11.5652 48.6735C11.366 49.1748 11.2666 49.6852 11.2666 50.2047C11.2666 51.3401 11.6924 52.3588 12.5444 53.2603C13.3959 54.1609 14.6143 54.611 16.1989 54.611Z" fill="#FFA511"/>
</g>
</g>
</g>
<g id="Group_16">
<g id="Group_17">
<g id="Group_18">
<path id="Vector_6" d="M19.9505 50.2047C19.9505 48.0407 20.6875 46.2091 22.1623 44.7099C23.638 43.2112 25.4149 42.4617 27.4939 42.4617C29.5851 42.4617 31.362 43.2082 32.8238 44.7013C34.2865 46.1943 35.0182 48.0289 35.0182 50.2047C35.0182 52.3922 34.2986 54.2325 32.8603 55.7256C31.4228 57.2186 29.6337 57.9651 27.4939 57.9651C25.3064 57.9651 23.5017 57.2251 22.0807 55.7447C20.6606 54.2633 19.9505 52.4165 19.9505 50.2047ZM23.6311 50.2047C23.6311 50.9894 23.7517 51.7056 23.9939 52.3523C24.2357 52.9994 24.6589 53.5467 25.263 53.9947C25.8681 54.4417 26.612 54.6648 27.4939 54.6648C28.7635 54.6648 29.7214 54.2299 30.3672 53.3592C31.0139 52.489 31.3377 51.4374 31.3377 50.2047C31.3377 48.9838 31.0083 47.9352 30.3498 47.0589C29.691 46.1817 28.7392 45.7429 27.4939 45.7429C26.2613 45.7429 25.309 46.1817 24.638 47.0589C23.9666 47.9352 23.6311 48.9838 23.6311 50.2047Z" fill="#FFA511"/>
</g>
</g>
</g>
<g id="Group_19">
<g id="Group_20">
<g id="Group_21">
<path id="Vector_7" d="M38.6623 42.7341V54.7011H43.8116V57.6925H35.2543V42.7341H38.6623Z" fill="#FFA511"/>
</g>
</g>
</g>
<g id="Group_22">
<g id="Group_23">
<g id="Group_24">
<path id="Vector_8" d="M47.6371 42.7341V54.7011H52.7864V57.6925H44.2291V42.7341H47.6371Z" fill="#FFA511"/>
</g>
</g>
</g>
<g id="Group_25">
<g id="Group_26">
<g id="Group_27">
<path id="Vector_9" d="M61.7613 42.7341V45.7255H56.612V48.6994H61.5443V51.6907H56.612V54.7011H61.7613V57.6925H53.204V42.7341H61.7613Z" fill="#FFA511"/>
</g>
</g>
</g>
<g id="Group_28">
<g id="Group_29">
<g id="Group_30">
<path id="Vector_10" d="M75.9769 49.3158V52.5606C75.5902 54.3384 74.7443 55.6839 73.4387 56.5971C72.1331 57.5094 70.6765 57.9651 69.0689 57.9651C67.0502 57.9651 65.3302 57.2099 63.9092 55.6995C62.489 54.1882 61.779 52.3623 61.779 50.2221C61.779 48.0463 62.4739 46.2091 63.864 44.7099C65.2538 43.2112 66.989 42.4617 69.0689 42.4617C71.4982 42.4617 73.42 43.3141 74.8345 45.019L72.6036 47.4669C71.8059 46.1856 70.6943 45.545 69.2686 45.545C68.2165 45.545 67.318 46.0016 66.5741 46.9148C65.8311 47.8271 65.4595 48.9296 65.4595 50.2221C65.4595 51.4921 65.8311 52.5771 66.5741 53.4773C67.318 54.3779 68.2165 54.828 69.2686 54.828C70.1388 54.828 70.897 54.5654 71.5429 54.0398C72.1896 53.5133 72.5134 52.815 72.5134 51.9443H69.0689V49.3158H75.9769Z" fill="#FFA511"/>
</g>
</g>
</g>
<g id="Group_31">
<g id="Group_32">
<g id="Group_33">
<path id="Vector_11" d="M84.7697 42.7341V45.7255H79.6204V48.6994H84.5527V51.6907H79.6204V54.7011H84.7697V57.6925H76.2124V42.7341H84.7697Z" fill="#FFA511"/>
</g>
</g>
</g>
</g>
</svg>
