<svg width="90" height="90" viewBox="0 0 90 90" fill="none" xmlns="http://www.w3.org/2000/svg">
<g id="brand-epicgames-svgrepo-com 1">
<path id="Vector" d="M29.8933 77.3597C12.301 69.9085 13.0792 70.3107 12.3815 68.3093C11.6474 66.2039 11.605 12.2666 12.3373 9.71982C13.3177 6.30124 11.8544 6.44727 45.3151 6.42847H75.8444L77.0176 7.67752L78.191 8.92658V38.9808C78.191 68.2202 78.1633 69.0594 77.1273 69.9456C76.0214 70.8926 46.0785 83.6111 45.0498 83.5712C44.7279 83.5712 37.9085 80.7711 29.8951 77.3768L29.8933 77.3597ZM51.7657 74.9838L57.9534 72.8669H45.2724C35.9684 72.8669 32.9506 73.0107 33.9404 73.4234C36.7762 74.6072 43.9602 77.0289 44.7507 77.0677C45.206 77.0677 48.3625 76.1555 51.7657 74.9911V74.9838ZM28.779 62.0054C29.9483 61.5628 30.1631 61.1419 30.1631 59.307C30.1631 57.1851 30.1189 57.1353 28.2745 57.1353C26.9554 57.1353 26.3858 57.3787 26.3858 57.9451C26.3858 58.3876 26.7503 58.7544 27.1952 58.7544C28.2227 58.7544 28.2532 59.7722 27.2395 60.1617C25.9906 60.6429 24.2294 59.3717 24.2294 57.9921C24.2294 56.2679 25.4353 55.405 27.5533 55.6124C29.9289 55.8447 30.4058 54.1675 28.202 53.33C26.28 52.5987 24.478 53.059 22.8339 54.7047C20.9998 56.539 21.1059 58.9513 23.1089 60.9543C24.7607 62.6061 26.3991 62.9104 28.779 62.0054ZM33.9404 61.4522C34.316 60.7502 35.0703 60.373 36.0989 60.373C37.1275 60.373 37.8816 60.7491 38.2574 61.4522C39.0001 62.8401 41.2294 62.9624 40.7233 61.5849C37.972 54.1111 37.5521 53.356 36.1486 53.3577C34.9274 53.3577 34.5632 53.8223 33.279 57.0003C30.9543 62.7544 30.9964 62.5292 32.2448 62.5292C32.8597 62.5292 33.6228 62.0447 33.9404 61.4522ZM35.5593 57.9451C35.5593 57.497 35.8021 57.1353 36.0992 57.1353C36.3962 57.1353 36.639 57.5004 36.639 57.9451C36.639 58.3876 36.3962 58.7544 36.0992 58.7544C35.8021 58.7544 35.5593 58.3893 35.5593 57.9451ZM44.7413 60.1036C45.0179 57.9595 45.0245 57.9534 45.7608 59.2639L46.5018 60.5826L47.7731 58.9939L49.0444 57.4052L49.0471 60.0062C49.0498 62.3937 49.1494 62.5923 50.2639 62.4341C51.3958 62.2737 51.4887 61.9584 51.6347 57.8101L51.7913 53.3582H50.1645C48.8888 53.3582 48.3498 53.7233 47.667 55.0421L46.7963 56.7254L45.7724 55.0421C45.0625 53.8743 44.3324 53.3582 43.3915 53.3582C42.0475 53.3582 42.0345 53.4135 42.0345 57.9822C42.0345 62.4695 42.0733 62.6017 43.2486 62.4341C44.2184 62.2958 44.519 61.8272 44.7413 60.1036ZM60.3817 61.4832C60.3817 60.6396 59.943 60.4028 58.1303 60.2695C55.0896 60.0427 54.6707 58.7544 57.6385 58.7544C59.4822 58.7544 59.842 58.5774 59.842 57.6752C59.842 56.7757 59.4824 56.5959 57.6835 56.5959C56.4963 56.5959 55.525 56.3525 55.525 56.0538C55.525 55.7551 56.6177 55.5117 57.9533 55.5117C60.0218 55.5117 60.3816 55.3513 60.3816 54.4325C60.3816 53.4639 60.022 53.3533 56.8741 53.3533H53.3666V57.9401V62.5265H56.8741C59.9872 62.5265 60.3817 62.4153 60.3817 61.4832ZM67.9364 61.4279C68.5299 60.8343 69.0156 60.0898 69.0156 59.7734C69.0156 58.8772 67.9523 57.111 67.4129 57.111C67.1457 57.111 66.265 56.862 65.4553 56.5512C64.4224 56.1584 64.1532 55.8215 64.5529 55.4221C64.95 55.0238 65.4412 55.0238 66.1769 55.4166C66.9296 55.8204 67.4095 55.8038 67.8537 55.3613C68.8337 54.3816 68.6071 54.0027 66.6553 53.3588C64.3715 52.6049 62.1176 53.4916 61.6576 55.3242C61.2571 56.9201 62.1211 57.9706 64.472 58.7467C66.3675 59.3723 66.978 60.3509 65.4726 60.3509C65.0079 60.3509 64.1271 60.0854 63.5153 59.7557C62.6612 59.2965 62.2955 59.3297 61.9402 59.8884C61.2213 61.023 61.3641 61.424 62.6751 61.9512C64.7137 62.7704 66.8016 62.5652 67.9364 61.4279ZM31.7819 44.1602V42.0017H29.0839H26.3858V37.4148V32.8279H29.0839H31.7819V30.9394C31.7819 29.1538 31.6791 29.047 29.8933 28.9834C28.8545 28.9281 27.7011 28.8838 27.3301 28.8506C26.8693 28.7953 26.6056 27.4566 26.498 24.6012L26.3403 20.4192H29.0611H31.7819V18.2403V16.0614L26.7904 16.2162L21.799 16.3711L21.6551 30.6628C21.576 38.5228 21.6275 45.2615 21.773 45.6371C21.9577 46.1184 23.4754 46.3203 26.9085 46.3203H31.782L31.7819 44.1602ZM38.6816 40.7875L38.836 35.5263H40.3547C42.6645 35.5263 44.9384 34.5632 45.7927 33.2229C46.8145 31.6203 47.1948 23.0031 46.3775 19.9712C45.5732 16.9874 43.6537 16.1001 38.0048 16.1001H33.9403V31.2403V46.3806L36.2337 46.2146L38.5271 46.0486L38.6816 40.7875ZM38.7972 25.8132V20.3451L40.2812 20.5166L41.7651 20.6881V25.8149V30.9411L40.2812 31.1126L38.7972 31.284V25.8132ZM53.2405 31.0744L53.3838 16.1001H50.947H48.5102V31.2403V46.3806L50.8036 46.2146L53.0969 46.0487L53.2405 31.0744ZM66.7163 45.4933C68.209 44.4478 69.009 41.5868 69.0128 37.2798L69.016 33.9071H66.6114H64.2067L64.048 37.8197C63.8909 41.6902 63.8726 41.7334 62.3292 41.9098C61.4429 42.0094 60.5723 41.7771 60.3139 41.3677C60.0638 40.975 59.8586 36.4003 59.8586 31.2066C59.8586 26.0129 60.0633 21.4404 60.3139 21.0454C60.5722 20.6361 61.4429 20.4048 62.3292 20.5033C63.8388 20.6748 63.8982 20.7965 64.1593 24.1891L64.4292 27.6967L66.4528 27.8627L68.4764 28.0286V23.3848C68.4764 19.174 68.353 18.6176 67.1519 17.4166C66.04 16.3047 65.3077 16.0923 62.5905 16.0923C58.7721 16.0923 56.9464 16.802 56.1246 18.6054C55.3098 20.3938 55.3115 42.0127 56.1268 43.8022C56.4576 44.528 57.2466 45.3727 57.8806 45.6797C59.7004 46.5609 65.3588 46.4364 66.7166 45.4861L66.7163 45.4933Z" fill="#D9D9D9"/>
</g>
</svg>
