<svg width="90" height="90" viewBox="0 0 90 90" fill="none" xmlns="http://www.w3.org/2000/svg">
<g id="github-142-svgrepo-com 2" clip-path="url(#clip0_69_148)">
<g id="Page-1">
<g id="Dribbble-Light-Preview">
<g id="icons">
<path id="github-[#142]" fill-rule="evenodd" clip-rule="evenodd" d="M45 0C69.8535 0 90 20.6547 90 46.1382C90 66.5187 77.121 83.8078 59.2515 89.9143C56.97 90.3688 56.16 88.928 56.16 87.6995C56.16 86.1785 56.214 81.2106 56.214 75.0366C56.214 70.7346 54.774 67.9268 53.1585 66.4958C63.18 65.3529 73.71 61.451 73.71 43.73C73.71 38.69 71.964 34.5772 69.075 31.3462C69.543 30.1807 71.0865 25.4878 68.634 19.1338C68.634 19.1338 64.863 17.8975 56.2725 23.8645C52.677 22.843 48.825 22.329 45 22.311C41.175 22.329 37.3275 22.843 33.7365 23.8645C25.137 17.8975 21.357 19.1338 21.357 19.1338C18.9135 25.4878 20.457 30.1807 20.9205 31.3462C18.045 34.5772 16.2855 38.69 16.2855 43.73C16.2855 61.406 26.793 65.3677 36.7875 66.5332C35.5005 67.6852 34.335 69.7174 33.93 72.7009C31.365 73.8799 24.849 75.9204 20.835 68.8689C20.835 68.8689 18.4545 64.4358 13.9365 64.1118C13.9365 64.1118 9.549 64.0535 13.6305 66.9155C13.6305 66.9155 16.578 68.333 18.6255 73.6655C18.6255 73.6655 21.267 81.9004 33.786 79.1104C33.8085 82.9669 33.849 86.6015 33.849 87.6995C33.849 88.919 33.021 90.3462 30.7755 89.9187C12.8925 83.8212 0 66.5232 0 46.1382C0 20.6547 20.151 0 45 0Z" fill="#D9D9D9"/>
</g>
</g>
</g>
</g>
<defs>
<clipPath id="clip0_69_148">
<rect width="90" height="90" fill="white"/>
</clipPath>
</defs>
</svg>
