<svg width="90" height="90" viewBox="0 0 90 90" fill="none" xmlns="http://www.w3.org/2000/svg">
<g id="Group">
<path id="Vector" d="M90.0001 46.0794C90.0001 43.0402 89.7 39.903 89.1998 36.9619H45.8878V54.3145H70.6947C69.6944 59.9027 66.3935 64.8045 61.4922 67.9417L76.2963 79.216C84.9987 71.275 90.0001 59.7066 90.0001 46.0794Z" fill="#4280EF"/>
<path id="Vector_2" d="M45.8877 90.0001C58.2912 90.0001 68.6941 85.9806 76.2962 79.118L61.4921 67.9417C57.3909 70.6868 52.0895 72.2554 45.8877 72.2554C33.8844 72.2554 23.7816 64.3144 20.0806 53.7263L4.87634 65.1967C12.6785 80.3925 28.4829 90.0001 45.8877 90.0001Z" fill="#34A353"/>
<path id="Vector_3" d="M20.0806 53.6284C18.18 48.0403 18.18 41.962 20.0806 36.3738L4.87635 24.8054C-1.62545 37.5503 -1.62545 52.55 4.87635 65.1968L20.0806 53.6284Z" fill="#F6B704"/>
<path id="Vector_4" d="M45.8877 17.8445C52.3895 17.7465 58.7913 20.1974 63.4926 24.6091L76.5963 11.6682C68.294 4.02124 57.2909 -0.0963263 45.8877 0.00171103C28.4829 0.00171103 12.6785 9.60937 4.87634 24.8052L20.0806 36.3736C23.7816 25.6875 33.8844 17.8445 45.8877 17.8445Z" fill="#E54335"/>
</g>
</svg>
