<svg width="40" height="40" viewBox="0 0 40 40" fill="none" xmlns="http://www.w3.org/2000/svg">
<g id="alarm_alert_attention_bell_clock_notification_ring_icon_123203 1" clip-path="url(#clip0_69_115)">
<g id="Layer 2">
<path id="Vector" d="M20 36.25C18.6739 36.25 17.4021 35.7232 16.4645 34.7855C15.5268 33.8479 15 32.5761 15 31.25C15 30.9185 15.1317 30.6005 15.3661 30.3661C15.6005 30.1317 15.9185 30 16.25 30H23.75C24.0815 30 24.3995 30.1317 24.6339 30.3661C24.8683 30.6005 25 30.9185 25 31.25C25 32.5761 24.4732 33.8479 23.5355 34.7855C22.5979 35.7232 21.3261 36.25 20 36.25ZM17.8375 32.5C18.0573 32.8788 18.3727 33.1933 18.7522 33.4119C19.1317 33.6305 19.562 33.7456 20 33.7456C20.438 33.7456 20.8683 33.6305 21.2478 33.4119C21.6273 33.1933 21.9427 32.8788 22.1625 32.5H17.8375Z" fill="#D9D9D9"/>
<path id="Vector_2" d="M22.5 8.75H17.5C17.1685 8.75 16.8505 8.6183 16.6161 8.38388C16.3817 8.14946 16.25 7.83152 16.25 7.5C16.25 6.50544 16.6451 5.55161 17.3483 4.84835C18.0516 4.14509 19.0054 3.75 20 3.75C20.9946 3.75 21.9484 4.14509 22.6517 4.84835C23.3549 5.55161 23.75 6.50544 23.75 7.5C23.75 7.83152 23.6183 8.14946 23.3839 8.38388C23.1495 8.6183 22.8315 8.75 22.5 8.75Z" fill="#D9D9D9"/>
<path id="Vector_3" d="M33.75 32.5H6.25C5.91848 32.5 5.60054 32.3683 5.36612 32.1339C5.1317 31.8995 5 31.5815 5 31.25C4.99891 29.8383 5.33939 28.4473 5.99238 27.1958C6.64538 25.9442 7.5915 24.8692 8.75 24.0625V17.5C8.74994 14.5293 9.9249 11.6791 12.0185 9.57145C14.1121 7.46381 16.9543 6.2698 19.925 6.25H20.0625C23.0462 6.25 25.9077 7.43526 28.0175 9.54505C30.1272 11.6548 31.3125 14.5163 31.3125 17.5V24.0625C32.4595 24.8761 33.3935 25.9541 34.0353 27.2052C34.6772 28.4564 35.0081 29.8438 35 31.25C35 31.5815 34.8683 31.8995 34.6339 32.1339C34.3995 32.3683 34.0815 32.5 33.75 32.5ZM7.625 30H32.375C32.198 29.1334 31.839 28.3143 31.3218 27.5967C30.8047 26.8792 30.1411 26.2795 29.375 25.8375C29.1842 25.7274 29.026 25.5688 28.9162 25.3778C28.8065 25.1868 28.7491 24.9703 28.75 24.75V17.5C28.75 15.1794 27.8281 12.9538 26.1872 11.3128C24.5462 9.67187 22.3206 8.75 20 8.75C17.6794 8.75 15.4538 9.67187 13.8128 11.3128C12.1719 12.9538 11.25 15.1794 11.25 17.5V24.75C11.2509 24.9703 11.1935 25.1868 11.0838 25.3778C10.974 25.5688 10.8158 25.7274 10.625 25.8375C9.85889 26.2795 9.19532 26.8792 8.67816 27.5967C8.16101 28.3143 7.80205 29.1334 7.625 30Z" fill="#D9D9D9"/>
</g>
<circle id="Ellipse 1" cx="28" cy="9" r="6" fill="#AA0A00"/>
</g>
<defs>
<clipPath id="clip0_69_115">
<rect width="40" height="40" fill="white"/>
</clipPath>
</defs>
</svg>
